<?xml version="1.0" standalone="no"?>
<!DOCTYPE svg PUBLIC "-//W3C//DTD SVG 20010904//EN"
 "http://www.w3.org/TR/2001/REC-SVG-20010904/DTD/svg10.dtd">
<svg version="1.0" xmlns="http://www.w3.org/2000/svg"
 width="700.000000pt" height="700.000000pt" viewBox="0 0 700.000000 700.000000"
 preserveAspectRatio="xMidYMid meet">
<metadata>
Created by potrace 1.11, written by Peter Selinger 2001-2013
</metadata>
<g transform="translate(0.000000,700.000000) scale(0.100000,-0.100000)"
fill="#000000" stroke="none">
<path d="M4515 5663 c-250 -48 -467 -271 -512 -525 -9 -48 -9 -176 0 -228 l7
-45 -133 -75 c-72 -41 -133 -78 -135 -82 -2 -5 -8 -8 -13 -8 -7 0 -129 -70
-689 -399 -52 -30 -108 -62 -125 -71 -16 -9 -93 -54 -170 -100 -135 -80 -163
-96 -241 -140 l-36 -21 -32 29 c-85 75 -243 137 -365 146 -264 17 -510 -120
-630 -353 -34 -67 -49 -111 -66 -201 -11 -54 -5 -191 10 -252 81 -311 352
-516 666 -502 133 6 269 56 369 135 l50 40 638 -372 c350 -204 651 -380 667
-389 183 -105 250 -149 246 -161 -12 -40 -9 -210 4 -269 23 -102 90 -225 160
-295 74 -73 86 -83 155 -122 132 -75 335 -100 475 -59 389 115 579 531 406
891 -22 44 -49 93 -62 109 -158 197 -391 285 -630 240 -83 -15 -221 -79 -274
-126 l-35 -30 -50 31 c-28 17 -52 31 -55 31 -2 0 -33 18 -67 40 -35 22 -69 40
-75 40 -7 0 -13 4 -13 9 0 5 -8 11 -17 15 -10 3 -25 10 -33 15 -33 22 -202
121 -205 121 -2 0 -49 27 -104 60 -56 33 -106 60 -111 60 -6 0 -10 5 -10 10 0
6 -4 10 -10 10 -5 0 -44 21 -87 46 -43 26 -98 58 -122 72 -25 14 -84 48 -131
76 -48 28 -173 101 -278 161 l-191 110 7 40 c9 51 8 189 -1 236 -5 31 -3 38
16 47 12 6 45 25 72 41 28 16 61 36 75 44 14 7 189 109 390 227 201 117 390
228 420 245 30 17 169 98 307 179 l252 147 54 -39 c126 -94 251 -135 404 -134
164 1 330 69 443 182 88 88 97 101 141 194 45 99 62 176 62 281 -2 238 -130
455 -338 570 -134 74 -295 99 -450 68z"/>
</g>
</svg>
